<svg xmlns="http://www.w3.org/2000/svg" viewBox="0 0 512 512"><path fill="#f5f5f5" d="M96 128h304v192c0 44.2-35.8 80-80 80H176c-44.2 0-80-35.8-80-80V128z"/><path fill="#4b3621" d="M112 144h272v16c0 20-15 38-34 40H162c-19-2-34-20-34-40v-16z"/><path fill="none" stroke="#888" stroke-width="16" stroke-linecap="round" d="M208 80q16-32 32 0t32 0m-96 0q16-32 32 0t32 0m96 0q16-32 32 0t32 0"/><path fill="none" stroke="#f5f5f5" stroke-width="24" d="M400 160h32c17.7 0 32 14.3 32 32v48c0 17.7-14.3 32-32 32h-32"/></svg>
