<svg xmlns="http://www.w3.org/2000/svg" viewBox="0 0 512 512"><path fill="#5d4037" d="M256 448c-70.7 0-128-57.3-128-128h256c0 70.7-57.3 128-128 128z"/><path fill="#f5f5f5" d="M256 320c-50 0-90-40-90-90 0-40 30-75 70-85 0-30 20-50 50-50 30 0 50 20 60 50 20 10 40 40 40 70 0 50-40 105-130 105z"/><path fill="none" stroke="#e0e0e0" stroke-width="10" stroke-linecap="round" d="M256 320q10-10 20 0"/><circle cx="240" cy="200" r="4" fill="#ddd"/><circle cx="280" cy="240" r="3" fill="#ddd"/><path fill="#3e2723" d="M128 320h256v16c0 8.8-7.2 16-16 16H144c-8.8 0-16-7.2-16-16v-16z" opacity="0.5"/></svg>
